<svg xmlns="http://www.w3.org/2000/svg" version="1.1" xmlns:xlink="http://www.w3.org/1999/xlink" xmlns:svgjs="http://svgjs.dev/svgjs" width="128" height="128" viewBox="0 0 128 128"><g transform="matrix(0.8046875,0,0,0.8046875,12.751024995301648,6.756153330592099)"><svg viewBox="0 0 85 95" data-background-color="#444444" preserveAspectRatio="xMidYMid meet" height="143" width="128" xmlns="http://www.w3.org/2000/svg" xmlns:xlink="http://www.w3.org/1999/xlink"><g id="tight-bounds" transform="matrix(1,0,0,1,-0.207156549520775,-0.24049999999999727)"><svg viewBox="0 0 85.41431309904154 95.481" height="95.481" width="85.41431309904154"><g><svg viewBox="0 0 85.41431309904154 95.481" height="95.481" width="85.41431309904154"><g><svg viewBox="0 0 85.41431309904154 95.481" height="95.481" width="85.41431309904154"><g id="textblocktransform"><svg viewBox="0 0 85.41431309904154 95.481" height="95.481" width="85.41431309904154" id="textblock"><g><svg viewBox="0 0 85.41431309904154 95.481" height="95.481" width="85.41431309904154"><g><svg viewBox="0 0 85.41431309904154 95.481" height="95.481" width="85.41431309904154"><g><svg xmlns="http://www.w3.org/2000/svg" xmlns:xlink="http://www.w3.org/1999/xlink" version="1.1" x="0" y="0" viewBox="8 3.0000000000000018 84 93.89999999999999" enable-background="new 0 0 100 100" xml:space="preserve" height="95.481" width="85.41431309904154" class="icon-icon-0" data-fill-palette-color="accent" id="icon-0"><path d="M92 30.9c0-4.7-3.8-8.6-8.6-8.6-2.7 0-5.1 1.3-6.7 3.3L57.9 14.8c0.4-1 0.6-2 0.6-3.2 0-4.7-3.8-8.6-8.6-8.6s-8.6 3.8-8.6 8.6c0 1.1 0.2 2.2 0.6 3.1L23.3 25.7c-1.6-2-4-3.3-6.7-3.3-4.7 0-8.6 3.8-8.6 8.6 0 4.2 3.1 7.7 7.1 8.4l0 21.3C11.1 61.3 8 64.8 8 69.1c0 4.7 3.8 8.6 8.6 8.6 2.7 0 5.1-1.2 6.6-3.2L42 85.3c-0.4 0.9-0.6 2-0.6 3 0 4.7 3.8 8.6 8.6 8.6s8.6-3.8 8.6-8.6c0-1.1-0.2-2.1-0.6-3l18.8-10.9c1.6 1.9 4 3.2 6.6 3.2 4.7 0 8.6-3.8 8.6-8.6 0-4.3-3.2-7.9-7.3-8.5l0-21.2C88.8 38.8 92 35.2 92 30.9zM83.4 24.8c3.4 0 6.1 2.7 6.1 6.1S86.8 37 83.4 37c-3.4 0-6.1-2.7-6.1-6.1S80 24.8 83.4 24.8zM50 5.5c3.4 0 6.1 2.7 6.1 6.1 0 1-0.3 2-0.7 2.9 0 0-0.1 0.1-0.1 0.1 0 0 0 0.1 0 0.1-1.1 1.8-3 3-5.2 3-3.4 0-6.1-2.7-6.1-6.1S46.6 5.5 50 5.5zM10.5 30.9c0-3.4 2.7-6.1 6.1-6.1 3.4 0 6.1 2.7 6.1 6.1S20 37 16.6 37C13.2 37 10.5 34.3 10.5 30.9zM16.6 75.2c-3.4 0-6.1-2.7-6.1-6.1 0-3.4 2.7-6.1 6.1-6.1 3.4 0 6.1 2.7 6.1 6.1C22.7 72.4 20 75.2 16.6 75.2zM50 94.5c-3.4 0-6.1-2.7-6.1-6.1 0-3.4 2.7-6.1 6.1-6.1 3.4 0 6.1 2.7 6.1 6.1C56.1 91.7 53.4 94.5 50 94.5zM56.8 83.2c-1.6-2-4-3.4-6.8-3.4-2.8 0-5.2 1.3-6.8 3.4L24.5 72.4c0.4-1 0.7-2.1 0.7-3.3 0-4.4-3.3-8-7.5-8.5l0-21.2c4.2-0.5 7.5-4.1 7.5-8.5 0-1.1-0.2-2.2-0.6-3.2l18.7-10.9c1.6 2 4 3.3 6.7 3.3 2.7 0 5.1-1.3 6.7-3.3l18.8 10.9c-0.4 1-0.6 2-0.6 3.2 0 4.3 3.2 7.9 7.3 8.5l0 21.2c-4.1 0.6-7.3 4.2-7.3 8.5 0 1.2 0.2 2.3 0.7 3.3L56.8 83.2zM89.5 69.1c0 3.4-2.7 6.1-6.1 6.1-3.4 0-6.1-2.7-6.1-6.1 0-3.4 2.7-6.1 6.1-6.1C86.8 63 89.5 65.7 89.5 69.1zM69.5 64.8c0.5 0.4 0.6 1.2 0.2 1.7-0.2 0.3-0.6 0.4-0.9 0.4-0.3 0-0.5-0.1-0.8-0.3-5.1-4.2-10.5-6.9-11.6-7.4-0.6-0.3-0.9-0.8-0.9-1.4v-8c0-0.4 0.2-0.8 0.5-1 0.7-0.5 1.1-1.3 1.1-2.1v-8.3c0-3.5-2.8-6.3-6.3-6.3h-1.8c-3.5 0-6.3 2.8-6.3 6.3v8.3c0 0.8 0.4 1.6 1.1 2.1 0.3 0.2 0.5 0.6 0.5 1v8c0 0.6-0.3 1.2-0.9 1.4-1 0.5-6.5 3.3-11.6 7.4-0.5 0.4-1.3 0.4-1.7-0.2-0.4-0.5-0.4-1.3 0.2-1.7 4.7-3.9 9.8-6.6 11.6-7.5v-6.9c-1.1-0.9-1.7-2.3-1.7-3.7v-8.3c0-4.8 3.9-8.7 8.7-8.7h1.8c4.8 0 8.7 3.9 8.7 8.7v8.3c0 1.4-0.6 2.8-1.7 3.7v6.9C59.7 58.2 64.8 61 69.5 64.8z" fill="#00d1cd" data-fill-palette-color="accent"></path></svg></g></svg></g></svg></g></svg></g></svg></g></svg></g><defs></defs></svg><rect width="85.41431309904154" height="95.481" fill="none" stroke="none" visibility="hidden"></rect></g></svg></g></svg>